<svg width="41" height="40" viewBox="0 0 41 40" fill="none" xmlns="http://www.w3.org/2000/svg">
<g id="vuesax/outline/arrow-circle-left">
<g id="arrow-circle-left">
<path id="Vector" d="M20.5007 37.9167C10.6173 37.9167 2.58398 29.8833 2.58398 20C2.58398 10.1167 10.6173 2.08334 20.5007 2.08334C30.384 2.08334 38.4173 10.1167 38.4173 20C38.4173 29.8833 30.384 37.9167 20.5007 37.9167ZM20.5007 4.58334C12.0007 4.58334 5.08398 11.5 5.08398 20C5.08398 28.5 12.0007 35.4167 20.5007 35.4167C29.0007 35.4167 35.9173 28.5 35.9173 20C35.9173 11.5 29.0007 4.58334 20.5007 4.58334Z" fill="black" fill-opacity="0.6"/>
<path id="Vector_2" d="M22.5999 27.1333C22.2832 27.1333 21.9665 27.0167 21.7165 26.7667L15.8332 20.8833C15.3499 20.4 15.3499 19.6 15.8332 19.1167L21.7165 13.2333C22.1999 12.75 22.9999 12.75 23.4832 13.2333C23.9665 13.7167 23.9665 14.5167 23.4832 15L18.4832 20L23.4832 25C23.9665 25.4833 23.9665 26.2833 23.4832 26.7667C23.2499 27.0167 22.9332 27.1333 22.5999 27.1333Z" fill="black" fill-opacity="0.6"/>
</g>
</g>
</svg>
