<svg width="41" height="40" viewBox="0 0 41 40" fill="none" xmlns="http://www.w3.org/2000/svg">
<g id="vuesax/outline/instagram">
<g id="instagram">
<path id="Vector" d="M25.5002 37.9167H15.5002C6.45016 37.9167 2.5835 34.05 2.5835 25V15C2.5835 5.95004 6.45016 2.08337 15.5002 2.08337H25.5002C34.5502 2.08337 38.4168 5.95004 38.4168 15V25C38.4168 34.05 34.5502 37.9167 25.5002 37.9167ZM15.5002 4.58337C7.81683 4.58337 5.0835 7.31671 5.0835 15V25C5.0835 32.6834 7.81683 35.4167 15.5002 35.4167H25.5002C33.1835 35.4167 35.9168 32.6834 35.9168 25V15C35.9168 7.31671 33.1835 4.58337 25.5002 4.58337H15.5002Z" fill="white"/>
<path id="Vector_2" d="M20.4998 27.0833C16.5998 27.0833 13.4165 23.9 13.4165 20C13.4165 16.1 16.5998 12.9166 20.4998 12.9166C24.3998 12.9166 27.5832 16.1 27.5832 20C27.5832 23.9 24.3998 27.0833 20.4998 27.0833ZM20.4998 15.4166C17.9665 15.4166 15.9165 17.4666 15.9165 20C15.9165 22.5333 17.9665 24.5833 20.4998 24.5833C23.0332 24.5833 25.0832 22.5333 25.0832 20C25.0832 17.4666 23.0332 15.4166 20.4998 15.4166Z" fill="white"/>
<path id="Vector_3" d="M28.8332 12.5C28.6165 12.5 28.3998 12.45 28.1998 12.3666C27.9998 12.2833 27.8165 12.1666 27.6498 12.0166C27.4998 11.85 27.3665 11.6666 27.2832 11.4666C27.1998 11.2666 27.1665 11.05 27.1665 10.8333C27.1665 10.6166 27.1998 10.4 27.2832 10.2C27.3832 9.9833 27.4998 9.81663 27.6498 9.64996C27.7332 9.5833 27.8165 9.49996 27.8998 9.44996C27.9998 9.3833 28.0998 9.3333 28.1998 9.29996C28.2998 9.24996 28.3998 9.21663 28.5165 9.19996C29.0498 9.0833 29.6165 9.26663 30.0165 9.64996C30.1665 9.81663 30.2832 9.9833 30.3665 10.2C30.4498 10.4 30.4998 10.6166 30.4998 10.8333C30.4998 11.05 30.4498 11.2666 30.3665 11.4666C30.2832 11.6666 30.1665 11.85 30.0165 12.0166C29.8498 12.1666 29.6665 12.2833 29.4665 12.3666C29.2665 12.45 29.0498 12.5 28.8332 12.5Z" fill="white"/>
</g>
</g>
</svg>
