<svg width="41" height="40" viewBox="0 0 41 40" fill="none" xmlns="http://www.w3.org/2000/svg">
<g id="vuesax/outline/send-2">
<g id="send-2">
<path id="Vector" d="M24.2001 36.05C22.2335 36.05 19.4501 34.6667 17.2501 28.05L16.0501 24.45L12.4501 23.25C5.85013 21.05 4.4668 18.2667 4.4668 16.3C4.4668 14.35 5.85013 11.55 12.4501 9.33333L26.6001 4.61666C30.1335 3.43333 33.0835 3.78333 34.9001 5.58333C36.7168 7.38333 37.0668 10.35 35.8835 13.8833L31.1668 28.0333C28.9501 34.6667 26.1668 36.05 24.2001 36.05ZM13.2335 11.7167C8.60013 13.2667 6.95013 15.1 6.95013 16.3C6.95013 17.5 8.60013 19.3333 13.2335 20.8667L17.4335 22.2667C17.8001 22.3833 18.1001 22.6833 18.2168 23.05L19.6168 27.25C21.1501 31.8833 23.0001 33.5333 24.2001 33.5333C25.4001 33.5333 27.2335 31.8833 28.7835 27.25L33.5001 13.1C34.3501 10.5333 34.2001 8.43333 33.1168 7.35C32.0335 6.26666 29.9335 6.13333 27.3835 6.98333L13.2335 11.7167Z" fill="white"/>
<path id="Vector_2" d="M17.3498 24C17.0332 24 16.7165 23.8834 16.4665 23.6334C15.9832 23.15 15.9832 22.35 16.4665 21.8667L22.4332 15.8834C22.9165 15.4 23.7165 15.4 24.1998 15.8834C24.6832 16.3667 24.6832 17.1667 24.1998 17.65L18.2332 23.6334C17.9998 23.8834 17.6665 24 17.3498 24Z" fill="white"/>
</g>
</g>
</svg>
